<svg width="71" height="71" fill="none" xmlns="http://www.w3.org/2000/svg"><path fill-rule="evenodd" clip-rule="evenodd" d="M35.021 0c19.342 0 35.021 15.68 35.021 35.021 0 19.342-15.68 35.021-35.02 35.021C15.678 70.042 0 54.362 0 35.022 0 15.68 15.68 0 35.021 0z" fill="#D1D1D1"/><path d="M35.021 53.185l-2.658-2.42c-9.442-8.562-15.675-14.227-15.675-21.139 0-5.665 4.436-10.083 10.083-10.083 3.19 0 6.252 1.485 8.25 3.813 1.998-2.328 5.06-3.813 8.25-3.813 5.647 0 10.083 4.418 10.083 10.083 0 6.912-6.233 12.577-15.675 21.139l-2.658 2.42z" fill="#000"/></svg>