<svg viewBox="0 0 16 16" xmlns="http://www.w3.org/2000/svg" xmlns:xlink="http://www.w3.org/1999/xlink"><style>:root&gt;svg{display:none}:root&gt;svg:target{display:block}</style><svg fill="none" viewBox="0 0 16 16" id="gg_qr" xmlns="http://www.w3.org/2000/svg"><path fill-rule="evenodd" clip-rule="evenodd" d="M6 2H2v4h1.333V3.333H6V2zM2 14v-4h1.333v2.667H6V14H2zm8-12v1.333h2.667V6H14V2h-4zm2.667 8H14v4h-4v-1.333h2.667V10zm-8-5.333h2.666v2.666H4.667V4.667zm0 4h2.666v2.666H4.667V8.667zm6.666-4H8.667v2.666h2.666V4.667zm-2.666 4h2.666v2.666H8.667V8.667z" fill="#313131"/></svg><svg fill="none" viewBox="0 0 16 16" id="ic_baseline-star" xmlns="http://www.w3.org/2000/svg"><path d="M8 11.513L12.12 14l-1.093-4.687 3.64-3.153-4.794-.407L8 1.333l-1.873 4.42-4.794.407 3.64 3.153L3.88 14 8 11.513z" fill="#313131"/></svg><svg fill="none" viewBox="0 0 16 16" id="ion_person-sharp" xmlns="http://www.w3.org/2000/svg"><path d="M8 8a3.5 3.5 0 100-7 3.5 3.5 0 000 7zm0 1c-2.17 0-6.5 1.34-6.5 4v2h13v-2c0-2.66-4.33-4-6.5-4z" fill="#313131"/></svg><svg fill="none" viewBox="0 0 16 16" id="mdi_camera" xmlns="http://www.w3.org/2000/svg"><path d="M2.667 2.667h2L6 1.333h4l1.333 1.334h2A1.333 1.333 0 0114.667 4v8a1.334 1.334 0 01-1.334 1.333H2.667A1.334 1.334 0 011.333 12V4a1.333 1.333 0 011.334-1.333zm5.333 2a3.333 3.333 0 100 6.666 3.333 3.333 0 000-6.666zM8 6a2 2 0 110 4 2 2 0 010-4z" fill="#313131"/></svg><svg fill="none" viewBox="0 0 16 16" id="ph_clock-bold" xmlns="http://www.w3.org/2000/svg"><path d="M8 1.25A6.75 6.75 0 1014.75 8 6.758 6.758 0 008 1.25zm0 12a5.25 5.25 0 110-10.5 5.25 5.25 0 010 10.5zM12.25 8a.75.75 0 01-.75.75H8A.75.75 0 017.25 8V4.5a.75.75 0 011.5 0v2.75h2.75a.75.75 0 01.75.75z" fill="#313131"/></svg></svg>