<svg width="15" height="16" fill="none" xmlns="http://www.w3.org/2000/svg"><path fill-rule="evenodd" clip-rule="evenodd" d="M3.245.107L3.258 0H4.91v4.068h3.94v2.87H4.91v2.67c0 .952.217 1.563.318 1.833.1.27.288.487.563.648.363.218.778.327 1.247.327.83 0 1.867-.354 2.69-.895v2.59c-.702.332-1.547.647-2.116.78a8.09 8.09 0 01-1.845.2c-.75 0-1.475-.285-1.475-.285s-.903-.46-1.31-.81c-.408-.352-.69-.725-.848-1.12-.157-.396-.236-.969-.236-1.72V6.939H0V4.322a5.399 5.399 0 001.742-.985c.46-.392.83-1.113 1.107-1.662.267-.525.301-.803.396-1.568zm11.672 12.991a2.03 2.03 0 10-4.061 0 2.03 2.03 0 004.061 0z" fill="#393939"/></svg>