<svg width="71" height="71" fill="none" xmlns="http://www.w3.org/2000/svg"><path fill-rule="evenodd" clip-rule="evenodd" d="M35.021 0c19.342 0 35.021 15.68 35.021 35.021 0 19.342-15.68 35.021-35.02 35.021C15.68 70.042 0 54.362 0 35.022 0 15.68 15.68 0 35.021 0z" fill="#D1D1D1"/><path d="M22.135 21.858L54.64 34.392c2.219.891 2.206 2.128.407 2.68l-8.345 2.604-19.309-12.183c-.913-.555-1.747-.256-1.061.352l15.644 14.119h.003l-.003.002.575 8.602c-.843 0-1.215-.387-1.688-.844l-4.054-3.941-8.431 6.227c-1.555.857-2.671.416-3.058-1.439l-5.535-26.084c-.567-2.272.867-3.3 2.35-2.63z" fill="#000"/></svg>