<svg width="20" height="15" fill="none" xmlns="http://www.w3.org/2000/svg"><path fill-rule="evenodd" clip-rule="evenodd" d="M.177 10.937s2.638.931 3.735.931c0 0 1.465.592 2.468-.991 0 0 .34-.493-.12-.733 0 0-4.185-.492-3.866-1.27 0 0-.02-.438.558-.338 0 0 .807-1.568.488-1.767 0 0-.498-.44-.1-.48 0 0 1.173.16 1.552.26 0 0 .26-.094.02-.273-.24-.18-.638-.584-.558-.663 0 0 .14-.339.777-.06 0 0 .356-.384.177-.583 0 0-.539-.32-.28-.578 0 0 1.216-1.527 2.57.882 0 0 .339.458.378.02 0 0 1.657-4.716 3.83-5.095 0 0 .697.14.837-.08 0 0 .604-.239.803-.04 0 0 .2.3.439.12 0 0 .857-.339.598.219 0 0-.82.906-1.12.926-.299.02-.239.424.02.464 0 0 3.586.258 3.586 2.93 0 0 .21.634.887-.024 0 0 1.026-.652 1.285-.684 0 0 .28-.18.24.24 0 0-.738 1.276-1.495 1.635 0 0-.459.578.2.459 0 0 .64-.132.938-.312 0 0 .778-.379.419.3 0 0-1.637 1.061-1.996 1.061 0 0-.239.06-.239.28 0 0-.22 7.275-9.35 7.275 0 0-4.571-.005-7.561-3.513 0 0-.579-.618-.12-.518z" fill="#D00B01"/></svg>