<svg width="16" height="16" fill="none" xmlns="http://www.w3.org/2000/svg"><path fill-rule="evenodd" clip-rule="evenodd" d="M3.242.503s1.65-.975 2.213.038c.45.3 1.612 6.254 1.837 7.491.225 1.238.825 1.688 1.2 1.163.375-.525 1.446-1.596 2.271-3.546.825-1.95-.012-1.85-.35-1.737-.337.112-1.933.15-1.296-.6.638-.75 1.963-2.5 2.375-2.65.788-.525 2.284-1.163 3.259-.038.6.45 1.987 2.1.637 4.538-1.35 2.437-6.97 9.329-6.97 9.329s-1.913 1.275-2.7 0c-.788-1.275-3.255-8.7-3.33-9.525-.075-.825-.3-1.05-.712-.825C1.263 4.366.52 5.52.446 5.145.371 4.77-.295 4.487.155 3.737c.45-.75 2.75-2.971 3.087-3.234z" fill="#393939"/></svg>