<svg width="14" height="14" viewBox="0 0 14 14" fill="none" xmlns="http://www.w3.org/2000/svg">
<path fill-rule="evenodd" clip-rule="evenodd" d="M1.96872 -2.8e-05H12.0624C13.9585 -2.8e-05 13.9999 1.96896 13.9999 1.96896V11.948C13.9999 11.948 14.021 13.9169 11.9688 13.9169H1.93749C1.93749 13.9169 0 13.8755 0 11.8856V1.90645C0 -0.02086 1.96872 -2.8e-05 1.96872 -2.8e-05ZM0.999978 2.03116C0.999978 1.06288 2.03122 1.00005 2.03122 1.00005H7.00013V7.00027H0.999978V2.03116ZM7.00013 7.00027H13V11.9167C13 12.948 12 12.9168 12 12.9168H7.00013V7.00027Z" fill="#393939"/>
</svg>
