<svg width="16" height="16" viewBox="0 0 16 16" fill="none" xmlns="http://www.w3.org/2000/svg">
<path d="M2.66668 2.66665H4.66668L6.00001 1.33331H10L11.3333 2.66665H13.3333C13.687 2.66665 14.0261 2.80712 14.2762 3.05717C14.5262 3.30722 14.6667 3.64636 14.6667 3.99998V12C14.6667 12.3536 14.5262 12.6927 14.2762 12.9428C14.0261 13.1928 13.687 13.3333 13.3333 13.3333H2.66668C2.31305 13.3333 1.97392 13.1928 1.72387 12.9428C1.47382 12.6927 1.33334 12.3536 1.33334 12V3.99998C1.33334 3.64636 1.47382 3.30722 1.72387 3.05717C1.97392 2.80712 2.31305 2.66665 2.66668 2.66665ZM8.00001 4.66665C7.11595 4.66665 6.26811 5.01784 5.64299 5.64296C5.01787 6.26808 4.66668 7.11592 4.66668 7.99998C4.66668 8.88403 5.01787 9.73188 5.64299 10.357C6.26811 10.9821 7.11595 11.3333 8.00001 11.3333C8.88406 11.3333 9.73191 10.9821 10.357 10.357C10.9822 9.73188 11.3333 8.88403 11.3333 7.99998C11.3333 7.11592 10.9822 6.26808 10.357 5.64296C9.73191 5.01784 8.88406 4.66665 8.00001 4.66665ZM8.00001 5.99998C8.53044 5.99998 9.03915 6.21069 9.41422 6.58577C9.7893 6.96084 10 7.46955 10 7.99998C10 8.53041 9.7893 9.03912 9.41422 9.41419C9.03915 9.78927 8.53044 9.99998 8.00001 9.99998C7.46958 9.99998 6.96087 9.78927 6.5858 9.41419C6.21072 9.03912 6.00001 8.53041 6.00001 7.99998C6.00001 7.46955 6.21072 6.96084 6.5858 6.58577C6.96087 6.21069 7.46958 5.99998 8.00001 5.99998Z" fill="#313131"/>
</svg>
