<svg width="20" height="20" viewBox="0 0 20 20" fill="none" xmlns="http://www.w3.org/2000/svg">
<circle cx="10" cy="10" r="10" transform="matrix(-1 0 0 1 20 0)" fill="#313131"/>
<path fill-rule="evenodd" clip-rule="evenodd" d="M13.756 10.1469C13.9122 9.99063 14 9.77871 14 9.55774C14 9.33677 13.9122 9.12485 13.756 8.96857L9.04184 4.25441C8.96497 4.17482 8.87302 4.11133 8.77135 4.06766C8.66968 4.02398 8.56033 4.00099 8.44968 4.00003C8.33903 3.99907 8.2293 4.02015 8.12688 4.06206C8.02447 4.10396 7.93143 4.16583 7.85318 4.24408C7.77494 4.32232 7.71306 4.41536 7.67116 4.51778C7.62926 4.62019 7.60817 4.72993 7.60914 4.84057C7.6101 4.95122 7.63309 5.06057 7.67676 5.16224C7.72043 5.26391 7.78392 5.35587 7.86351 5.43274L11.9885 9.55774L7.86351 13.6827C7.71171 13.8399 7.62772 14.0504 7.62962 14.2689C7.63152 14.4874 7.71916 14.6964 7.87366 14.8509C8.02817 15.0054 8.23718 15.0931 8.45568 15.095C8.67417 15.0969 8.88468 15.0129 9.04184 14.8611L13.756 10.1469Z" fill="white"/>
</svg>
