<svg width="20" height="20" viewBox="0 0 20 20" fill="none" xmlns="http://www.w3.org/2000/svg">
<circle cx="10" cy="10" r="10" fill="#313131"/>
<path fill-rule="evenodd" clip-rule="evenodd" d="M6.24399 10.1469C6.08776 9.99063 6 9.77871 6 9.55774C6 9.33677 6.08776 9.12485 6.24399 8.96857L10.9582 4.25441C11.035 4.17482 11.127 4.11133 11.2287 4.06766C11.3303 4.02398 11.4397 4.00099 11.5503 4.00003C11.661 3.99907 11.7707 4.02015 11.8731 4.06206C11.9755 4.10396 12.0686 4.16583 12.1468 4.24408C12.2251 4.32232 12.2869 4.41536 12.3288 4.51778C12.3707 4.62019 12.3918 4.72993 12.3909 4.84057C12.3899 4.95122 12.3669 5.06057 12.3232 5.16224C12.2796 5.26391 12.2161 5.35587 12.1365 5.43274L8.01149 9.55774L12.1365 13.6827C12.2883 13.8399 12.3723 14.0504 12.3704 14.2689C12.3685 14.4874 12.2808 14.6964 12.1263 14.8509C11.9718 15.0054 11.7628 15.0931 11.5443 15.095C11.3258 15.0969 11.1153 15.0129 10.9582 14.8611L6.24399 10.1469Z" fill="white"/>
</svg>
