<svg width="15" height="16" viewBox="0 0 15 16" fill="none" xmlns="http://www.w3.org/2000/svg">
<path fill-rule="evenodd" clip-rule="evenodd" d="M3.24473 0.106865C3.249 0.072265 3.25339 0.0366698 3.25794 1.11461e-05H4.91092V4.06774H8.85043V6.93811H4.91092V9.60761C4.91092 10.5596 5.12802 11.1711 5.22895 11.4413C5.32978 11.7117 5.51746 11.9276 5.79178 12.0889C6.1549 12.3067 6.57043 12.4158 7.03861 12.4158C7.86957 12.4158 8.90629 12.0622 9.72946 11.5215V14.1119C9.02736 14.4427 8.18233 14.7579 7.61344 14.8909C7.04457 15.0243 6.4291 15.0908 5.76751 15.0908C5.01712 15.0908 4.29283 14.8063 4.29283 14.8063C4.29283 14.8063 3.39001 14.3462 2.98282 13.9954C2.57518 13.6444 2.29287 13.2712 2.1355 12.8758C1.97815 12.4804 1.8993 11.9072 1.8993 11.1569V6.93811H4.44129e-05V4.32198C0.645479 4.11211 1.282 3.72824 1.74195 3.33694C2.202 2.94544 2.57118 2.22409 2.8495 1.67545C3.11589 1.15024 3.15025 0.871999 3.24473 0.106865ZM14.9171 13.0981C14.9171 11.9764 14.0078 11.0674 12.8862 11.0674C11.7645 11.0674 10.8552 11.9764 10.8552 13.0981C10.8552 14.2199 11.7645 15.1291 12.8862 15.1291C14.0078 15.1291 14.9171 14.2199 14.9171 13.0981Z" fill="#393939"/>
</svg>
