<svg width="20" height="15" viewBox="0 0 20 15" fill="none" xmlns="http://www.w3.org/2000/svg">
<path fill-rule="evenodd" clip-rule="evenodd" d="M0.176776 10.9368C0.176776 10.9368 2.81532 11.8681 3.91167 11.8681C3.91167 11.8681 5.3765 12.4594 6.38026 10.8766C6.38026 10.8766 6.71924 10.3839 6.26056 10.1442C6.26056 10.1442 2.07488 9.65187 2.39383 8.87455C2.39383 8.87455 2.37392 8.43579 2.95197 8.53546C2.95197 8.53546 3.7591 6.96753 3.44028 6.7683C3.44028 6.7683 2.94178 6.32964 3.34049 6.2899C3.34049 6.2899 4.51328 6.44875 4.89207 6.54843C4.89207 6.54843 5.1514 6.4551 4.91211 6.27573C4.67292 6.09592 4.27432 5.69229 4.35386 5.6128C4.35386 5.6128 4.49337 5.27371 5.13137 5.55286C5.13137 5.55286 5.48694 5.16931 5.3076 4.96986C5.3076 4.96986 4.76939 4.65097 5.02849 4.39158C5.02849 4.39158 6.24374 2.86467 7.59757 5.2735C7.59757 5.2735 7.93655 5.73192 7.97649 5.29348C7.97649 5.29348 9.63278 0.577754 11.8058 0.198824C11.8058 0.198824 12.5034 0.338549 12.6429 0.119114C12.6429 0.119114 13.2471 -0.119866 13.4465 0.0792739C13.4465 0.0792739 13.6458 0.378509 13.8849 0.198824C13.8849 0.198824 14.7421 -0.140266 14.483 0.418139C14.483 0.418139 13.6624 1.32391 13.3635 1.34421C13.0644 1.36365 13.1242 1.76793 13.3833 1.80778C13.3833 1.80778 16.9688 2.06599 16.9688 4.73733C16.9688 4.73733 17.1785 5.37199 17.8563 4.71412C17.8563 4.71412 18.8824 4.06129 19.1415 4.02994C19.1415 4.02994 19.4206 3.85068 19.3809 4.26934C19.3809 4.26934 18.6434 5.54632 17.8859 5.90496C17.8859 5.90496 17.4275 6.48291 18.0853 6.36358C18.0853 6.36358 18.7252 6.23146 19.0241 6.05188C19.0241 6.05188 19.8017 5.67306 19.4429 6.35122C19.4429 6.35122 17.806 7.41327 17.4474 7.41327C17.4474 7.41327 17.2082 7.473 17.2082 7.6921C17.2082 7.6921 16.9887 14.9683 7.85862 14.9683C7.85862 14.9683 3.28658 14.9634 0.296581 11.4549C0.296581 11.4549 -0.281675 10.8367 0.176776 10.9368Z" fill="#5B5B5B"/>
</svg>
