<svg width="20" height="15" viewBox="0 0 20 15" fill="none" xmlns="http://www.w3.org/2000/svg">
<path fill-rule="evenodd" clip-rule="evenodd" d="M0.17665 10.9369C0.17665 10.9369 2.81532 11.8681 3.91167 11.8681C3.91167 11.8681 5.3765 12.4597 6.38028 10.8766C6.38028 10.8766 6.71924 10.3836 6.26056 10.1443C6.26056 10.1443 2.07488 9.65214 2.39383 8.87451C2.39383 8.87451 2.37392 8.43585 2.95197 8.53563C2.95197 8.53563 3.75912 6.96759 3.44018 6.76857C3.44018 6.76857 2.94178 6.32949 3.34049 6.28963C3.34049 6.28963 4.51328 6.44871 4.89207 6.54859C4.89207 6.54859 5.1513 6.45493 4.91211 6.27567C4.67292 6.09609 4.27434 5.69202 4.35386 5.61297C4.35386 5.61297 4.49337 5.27398 5.13137 5.55292C5.13137 5.55292 5.48684 5.16927 5.30762 4.96992C5.30762 4.96992 4.76939 4.6507 5.02849 4.39185C5.02849 4.39185 6.24363 2.86473 7.59759 5.27367C7.59759 5.27367 7.93655 5.73219 7.97649 5.29342C7.97649 5.29342 9.6328 0.577694 11.8058 0.198974C11.8058 0.198974 12.5034 0.338504 12.6429 0.119174C12.6429 0.119174 13.2471 -0.119911 13.4465 0.0793339C13.4465 0.0793339 13.6458 0.378344 13.885 0.198974C13.885 0.198974 14.7421 -0.139891 14.483 0.417989C14.483 0.417989 13.6624 1.32397 13.3635 1.34394C13.0644 1.36371 13.1242 1.76799 13.3833 1.80805C13.3833 1.80805 16.9688 2.06604 16.9688 4.73716C16.9688 4.73716 17.1785 5.37216 17.8563 4.71408C17.8563 4.71408 18.8824 4.06156 19.1415 4.03009C19.1415 4.03009 19.4206 3.85095 19.3809 4.26961C19.3809 4.26961 18.6434 5.54647 17.8858 5.905C17.8858 5.905 17.4275 6.48297 18.0853 6.36364C18.0853 6.36364 18.7252 6.23152 19.0242 6.05194C19.0242 6.05194 19.8017 5.67333 19.4429 6.35128C19.4429 6.35128 17.8059 7.41312 17.4474 7.41312C17.4474 7.41312 17.2081 7.47316 17.2081 7.69227C17.2081 7.69227 16.9887 14.9683 7.85862 14.9683C7.85862 14.9683 3.28658 14.9634 0.296602 11.4551C0.296602 11.4551 -0.281675 10.8366 0.17665 10.9369Z" fill="#D00B01"/>
</svg>
