<svg width="16" height="16" viewBox="0 0 16 16" fill="none" xmlns="http://www.w3.org/2000/svg">
<path fill-rule="evenodd" clip-rule="evenodd" d="M3.24226 0.502994C3.24226 0.502994 4.89228 -0.471726 5.45474 0.540802C5.90484 0.84069 7.06734 6.79483 7.29233 8.03239C7.51721 9.26992 8.11734 9.72008 8.49236 9.19496C8.86738 8.66995 9.93809 7.59909 10.7631 5.64901C11.5881 3.69903 10.7506 3.79912 10.4131 3.91159C10.0756 4.02403 8.47988 4.06163 9.11743 3.31171C9.75476 2.56168 11.0799 0.811586 11.4923 0.661746C12.2798 0.136642 13.7756 -0.50083 14.7507 0.624258C15.3507 1.07408 16.7382 2.72419 15.3881 5.16159C14.0382 7.59909 8.41729 14.4908 8.41729 14.4908C8.41729 14.4908 6.50474 15.7658 5.71727 14.4908C4.92982 13.2156 2.46314 5.79079 2.38818 4.96589C2.31311 4.14067 2.08825 3.91587 1.67558 4.14067C1.26313 4.36581 0.521432 5.52 0.446472 5.14504C0.3714 4.76999 -0.295224 4.48653 0.15476 3.73651C0.604856 2.98669 2.90478 0.765826 3.24226 0.502994Z" fill="#393939"/>
</svg>
